<?xml version="1.0" encoding="UTF-8"   standalone="no"?>
<!DOCTYPE svg PUBLIC "-//W3C//DTD SVG 1.1//EN" "http://www.w3.org/Graphics/SVG/1.1/DTD/svg11.dtd">
<svg width="100%"  preserveAspectRatio="none" height="100%" viewBox="0 0 1398 818" version="1.1" xmlns="http://www.w3.org/2000/svg" xmlns:xlink="http://www.w3.org/1999/xlink" xml:space="preserve" xmlns:serif="http://www.serif.com/" style="fill-rule:evenodd;clip-rule:evenodd;stroke-linejoin:round;stroke-miterlimit:2;">
    <g transform="matrix(1,0,0,1,-207.344,-263.887)">
        <path d="M1584.08,502.727C1583.2,509.514 1582.3,516.301 1581.35,523.085C1581.02,525.392 1580.52,527.69 1580.03,529.987C1579.98,530.18 1579.45,530.364 1579.1,530.501C1578.6,530.691 1577.62,530.191 1577.6,529.786C1577.59,529.642 1577.54,529.498 1577.53,529.353C1577.52,529.208 1577.51,529.063 1577.53,528.919C1578.18,523.574 1578.83,518.228 1579.49,512.883L1579.48,512.883C1580.12,507.681 1580.74,502.479 1581.4,497.279C1581.49,496.564 1581.68,495.848 1581.96,495.152C1582.04,494.954 1582.59,494.786 1582.98,494.674C1583.5,494.528 1584.48,494.981 1584.53,495.356C1584.59,495.789 1584.72,496.223 1584.69,496.652C1584.52,498.678 1584.35,500.704 1584.08,502.727ZM1568.54,399.401C1568.21,414.477 1567.05,429.536 1566.31,444.604C1565.79,455.178 1564.93,465.748 1564.14,476.318C1564.02,478.043 1564.13,479.803 1563.09,481.469C1563.05,481.537 1562.73,481.586 1562.55,481.573C1562.34,481.557 1561.98,481.481 1561.96,481.404C1561.72,480.559 1561.34,479.708 1561.35,478.859C1561.36,472.047 1561.43,465.234 1561.53,458.423C1561.59,455.089 1561.79,451.757 1561.88,448.424C1562.41,428.858 1563.73,409.305 1564.63,389.746C1565.51,370.617 1565.72,351.482 1564.8,332.353C1564.32,322.359 1563.28,312.372 1561.89,302.403C1561.39,298.794 1560.69,295.193 1560.05,291.59C1559.97,291.163 1559.82,290.721 1559.52,290.334C1559.34,290.11 1558.8,289.825 1558.44,289.834C1555.47,289.905 1552.5,289.958 1549.56,290.169C1541.21,290.769 1532.87,291.442 1524.53,292.081C1523.79,292.137 1523.03,292.223 1522.32,292.158C1514.75,291.457 1507.06,291.148 1499.62,289.982C1498.96,289.878 1498.36,289.646 1497.38,289.376C1498.48,288.998 1499.25,288.579 1500.14,288.449C1506.86,287.471 1513.58,286.494 1520.35,285.647C1522.24,285.411 1524.33,285.457 1526.25,285.64C1536.36,286.604 1546.49,286.365 1556.62,285.856C1557.36,285.819 1558.1,285.761 1558.84,285.737C1567.03,285.465 1566.54,284.978 1566.73,289.856C1566.79,291.305 1566.81,292.761 1567.08,294.199C1568.15,299.831 1568.08,305.484 1568.18,311.137C1568.46,326.5 1568.84,341.861 1569.05,357.225C1569.25,371.285 1568.84,385.342 1568.54,399.401ZM1554.51,374.333C1554.5,360.868 1554.51,347.403 1554.54,333.938C1554.55,331.488 1554.63,329.037 1555.39,326.687C1557,344.849 1557.68,362.915 1555.66,381.719C1555.14,380.666 1554.84,380.325 1554.81,379.976C1554.67,378.096 1554.52,376.214 1554.51,374.333ZM1555.66,518.759C1556.62,512.714 1557.08,506.642 1557.8,500.584C1558.15,497.699 1558.56,494.817 1559.01,491.938C1559.07,491.535 1559.46,491.141 1559.77,490.763C1560.02,490.448 1560.52,490.362 1561.04,490.523C1561.45,490.648 1562.04,490.788 1562.13,490.987C1562.39,491.53 1562.55,492.111 1562.52,492.671C1562.34,495.562 1562.15,498.453 1561.85,501.339C1561.35,506.247 1560.77,511.151 1560.45,514.028C1559.41,524.141 1558.58,532.224 1557.74,540.307C1557.68,540.882 1557.53,541.454 1557.4,542.026C1557.32,542.375 1556.22,542.815 1555.75,542.657C1555.38,542.532 1554.9,542.342 1554.82,542.133C1554.6,541.579 1554.47,540.999 1554.46,540.428C1554.36,533.196 1554.52,525.975 1555.66,518.759ZM1567.44,1055.8C1567.61,1056.8 1567.55,1057.81 1567.47,1058.82C1567.45,1059.03 1566.9,1059.34 1566.51,1059.39C1565.57,1059.53 1564.57,1059.58 1563.59,1059.61C1556.67,1059.84 1549.75,1060.07 1542.83,1060.28C1539.86,1060.37 1536.89,1060.45 1533.92,1060.46C1494.56,1060.62 1455.19,1060.84 1415.82,1060.88C1393.78,1060.9 1371.75,1060.72 1349.72,1060.42C1329.42,1060.14 1309.14,1059.56 1288.85,1059.13C1283.41,1059.01 1277.96,1058.95 1272.52,1058.83C1261.38,1058.58 1250.25,1058.32 1239.12,1058.02C1237.15,1057.97 1235.19,1057.79 1233.26,1057.56C1232.71,1057.49 1232.3,1057.02 1231.5,1056.55C1233.92,1056.5 1235.89,1056.42 1237.86,1056.43C1253.95,1056.52 1270.04,1056.61 1286.14,1056.73C1292.57,1056.78 1299.01,1056.89 1305.44,1057C1319.06,1057.22 1332.67,1057.52 1346.28,1057.67C1374.75,1058 1403.2,1058.81 1431.68,1058.81C1442.08,1058.81 1452.48,1058.79 1462.88,1058.81C1480.47,1058.84 1498.02,1058.24 1515.58,1057.75C1527.94,1057.4 1540.26,1056.65 1552.59,1056.05C1555.05,1055.92 1557.49,1055.64 1559.75,1055.44C1560.78,1054.72 1560.69,1053.99 1560.56,1053.28C1559.98,1050.11 1559.41,1046.94 1558.73,1043.78C1558.14,1041.05 1557.37,1038.33 1556.76,1035.6C1556.56,1034.75 1556.38,1033.85 1556.59,1033.01C1557.58,1029 1558.67,1024.99 1559.82,1020.99C1559.98,1020.46 1560.67,1019.97 1561.14,1019.47C1561.18,1019.43 1561.59,1019.44 1561.64,1019.48C1562.12,1019.98 1562.75,1020.46 1562.98,1021C1564.26,1023.94 1565.44,1026.9 1566.65,1029.86C1566.76,1030.14 1566.76,1030.44 1566.92,1030.71C1568.16,1032.84 1568.08,1034.95 1567.32,1037.14C1566.79,1038.69 1566.77,1040.31 1566.7,1041.9C1566.51,1046.54 1566.68,1051.17 1567.44,1055.8ZM1216.67,1056.95C1215.71,1057.04 1214.74,1057.19 1213.78,1057.16C1207.37,1057 1200.95,1056.79 1194.54,1056.6C1194.54,1056.58 1194.54,1056.56 1194.55,1056.53C1183.2,1056.14 1171.86,1055.75 1160.52,1055.36C1150.9,1055.03 1141.29,1054.71 1131.67,1054.36C1130.95,1054.34 1130.21,1054.23 1129.56,1054.05C1129.21,1053.96 1128.99,1053.66 1128.78,1053.43C1128.48,1053.09 1128.69,1052.84 1129.32,1052.76C1130.27,1052.63 1131.22,1052.44 1132.17,1052.43C1144.78,1052.27 1157.36,1052.52 1169.93,1053.15C1171.65,1053.23 1173.37,1053.36 1175.09,1053.43C1185.69,1053.83 1196.29,1054.21 1206.89,1054.62C1209.6,1054.72 1212.3,1054.89 1215,1055.09C1215.69,1055.14 1216.4,1055.33 1216.97,1055.56C1217.26,1055.68 1217.32,1056.04 1217.4,1056.3C1217.51,1056.65 1217.23,1056.89 1216.67,1056.95ZM1210.46,1069.14C1210.33,1069.39 1210.2,1069.69 1209.89,1069.85C1209.55,1070.03 1209.02,1070.13 1208.56,1070.14C1206.84,1070.18 1205.11,1070.16 1205.09,1070.16C1194.27,1069.63 1185.17,1069.19 1176.06,1068.75C1168.18,1068.38 1160.3,1068.02 1152.42,1067.63C1151.46,1067.58 1150.52,1067.38 1149.59,1067.22C1149.47,1067.2 1149.32,1066.99 1149.37,1066.89C1149.5,1066.65 1149.63,1066.29 1149.93,1066.21C1150.57,1066.04 1151.34,1065.92 1152.04,1065.95C1160.91,1066.29 1169.78,1066.66 1178.65,1067.02C1183.09,1067.2 1187.53,1067.37 1191.96,1067.58C1197.62,1067.84 1203.28,1068.12 1208.94,1068.42C1209.38,1068.45 1209.82,1068.64 1210.22,1068.8C1210.37,1068.86 1210.51,1069.04 1210.46,1069.14ZM1408.44,1052.68C1410.9,1052.57 1413.37,1052.44 1415.83,1052.44C1438.57,1052.43 1461.31,1052.43 1484.05,1052.45C1487.01,1052.46 1489.97,1052.6 1492.93,1052.69C1493.14,1052.7 1493.34,1052.85 1493.54,1052.93C1493.15,1053.07 1492.77,1053.32 1492.37,1053.33C1473.08,1054.13 1420.06,1054.02 1407.87,1053.17C1408.07,1052.99 1408.24,1052.69 1408.44,1052.68ZM683.308,292.917C682.711,293.136 681.95,293.304 681.252,293.309C670.635,293.372 660.016,293.529 649.417,292.959C645.237,292.735 641.045,292.599 636.859,292.42C623.314,291.843 609.77,291.27 596.229,290.672C595.542,290.642 594.814,290.487 594.57,289.972C594.323,289.447 595.017,288.645 595.825,288.615C596.317,288.597 596.813,288.548 597.301,288.565C606.421,288.883 615.539,289.218 624.66,289.53C629.344,289.691 634.032,289.813 640.104,289.995C652.764,290.468 666.81,290.993 680.856,291.517C681.853,291.555 682.858,291.652 683.463,292.147C683.665,292.312 683.556,292.826 683.308,292.917ZM578.939,288.897C577.738,289.013 576.531,289.183 575.324,289.187C565.669,289.211 556.013,289.241 546.358,289.194C533.732,289.133 521.104,289.032 508.48,288.891C500.56,288.803 492.643,288.612 484.724,288.465C483.734,288.446 482.746,288.404 481.756,288.391C446.608,287.919 411.478,286.98 376.311,287.054C366.16,287.075 356.008,287.122 345.858,287.094C327.276,287.042 308.732,287.641 290.194,288.244C281.549,288.524 272.932,289.1 264.303,289.547C260.605,289.738 256.907,289.938 253.211,290.143C252.308,290.192 251.405,290.815 251.435,291.343C251.477,292.067 251.457,292.796 251.607,293.512C252.729,298.832 253.811,304.154 255.076,309.462C255.458,311.061 255.6,312.607 255.134,314.205C254.218,317.346 253.466,320.502 252.64,323.652C252.377,324.657 251.907,325.619 251.016,326.472C249.717,326.271 249.525,325.68 249.274,325.184C248.504,323.658 247.775,322.122 247.147,320.574C246.404,318.742 245.959,316.864 245.065,315.061C243.999,312.91 243.987,310.813 244.689,308.627C245.189,307.072 245.299,305.459 245.349,303.87C245.492,299.376 245.421,294.885 244.611,290.407C244.43,289.403 244.465,288.386 244.399,287.375C244.378,287.046 245.177,286.459 245.662,286.418C246.151,286.376 246.637,286.311 247.128,286.292C262.448,285.723 277.774,285.378 293.132,285.305C326.555,285.146 359.972,284.625 393.399,284.756C409.491,284.819 425.582,285.005 441.672,285.157C448.851,285.224 456.03,285.321 463.207,285.443C473.6,285.623 483.992,285.836 494.384,286.039C496.611,286.082 498.837,286.147 501.064,286.19C521.603,286.586 542.141,286.979 562.679,287.374C568.112,287.478 573.544,287.593 578.872,288.308C579.058,288.333 579.243,288.516 579.301,288.646C579.331,288.71 579.089,288.883 578.939,288.897ZM408.186,293.199C404.729,293.282 401.269,293.342 397.809,293.343C373.833,293.354 349.856,293.354 325.88,293.342C320.455,293.339 315.026,293.331 308.661,293.007C325.614,291.648 385.605,291.536 410.108,292.747C409.779,293.402 408.808,293.185 408.186,293.199ZM257.338,1015.63C257.338,1016.93 257.133,1018.22 257.012,1019.64C256.634,1019.43 256.47,1019.38 256.417,1019.31C256.327,1019.18 256.271,1019.03 256.264,1018.89C255.807,1009.63 255.102,1000.37 254.986,991.107C254.896,983.875 255.529,976.638 255.862,969.403C255.928,967.962 256.091,966.523 256.209,965.083C256.428,965.015 256.647,964.946 256.864,964.877C257.001,965.294 257.255,965.711 257.256,966.129C257.303,982.631 257.334,999.133 257.338,1015.63ZM251.809,829.337C252.637,821.404 253.462,813.471 254.301,805.538C254.376,804.828 254.276,804.08 255.155,803.485C255.289,803.394 255.551,803.293 255.723,803.309C256.144,803.349 256.768,803.386 256.913,803.547C257.243,803.915 257.496,804.354 257.502,804.766C257.633,811.704 257.765,818.642 256.548,825.558C256.371,826.564 256.215,827.573 256.104,828.582C255.417,834.783 254.778,840.985 254.056,847.185C253.787,849.49 253.349,851.789 252.95,854.089C252.903,854.354 252.705,854.66 252.4,854.848C252.113,855.025 251.586,855.16 251.175,855.151C250.771,855.143 250.13,854.977 250.03,854.798C249.737,854.268 249.493,853.694 249.526,853.144C249.704,850.11 249.912,847.077 250.219,844.047C250.717,839.143 251.3,834.241 251.847,829.338C251.834,829.338 251.821,829.337 251.809,829.337ZM313.261,1057.01C305.746,1058.51 297.927,1059.29 290.208,1060.31C289.276,1060.43 288.214,1060.38 287.267,1060.27C281.397,1059.54 275.443,1059.57 269.506,1059.62C263.319,1059.68 257.135,1059.89 250.95,1060.03C249.719,1060.06 248.485,1060.07 247.253,1060.09C246.712,1060.1 245.699,1059.62 245.632,1059.33C245.599,1059.19 245.521,1059.05 245.515,1058.91C245.207,1051.52 243.886,1044.16 243.836,1036.76C243.72,1019.51 243.132,1002.26 242.94,985.016C242.829,975.015 243.055,965.013 243.239,955.012C243.364,948.2 243.565,941.388 243.932,934.579C244.672,920.816 245.559,907.057 246.361,893.295C246.648,888.37 246.785,883.441 247.141,878.517C247.454,874.174 247.957,869.835 248.435,865.497C248.479,865.095 248.945,864.708 249.215,864.315C249.418,864.369 249.662,864.398 249.817,864.482C250.62,864.92 250.578,865.516 250.578,866.081C250.584,872.168 250.592,878.255 250.553,884.343C250.538,886.661 250.361,888.979 250.328,891.298C250.062,910.144 248.844,928.976 247.842,947.809C246.802,967.375 246.557,986.937 246.962,1006.51C247.176,1016.8 248.083,1027.08 249.482,1037.34C250.132,1042.1 250.788,1046.87 251.489,1051.64C251.699,1053.06 252.07,1054.47 252.345,1055.79C254.048,1056.32 255.543,1056.1 256.992,1055.99C266.566,1055.28 276.13,1054.51 285.711,1053.83C287.902,1053.68 290.185,1053.63 292.361,1053.8C298.734,1054.31 305.079,1054.95 311.425,1055.57C312.13,1055.64 312.792,1055.89 313.448,1056.08C313.645,1056.14 313.912,1056.34 313.868,1056.41C313.748,1056.63 313.554,1056.95 313.261,1057.01ZM601.748,276.509C601.915,276.269 602.147,275.942 602.49,275.865C603.15,275.716 603.918,275.638 604.626,275.666C610.796,275.91 616.962,276.186 623.13,276.451C632.999,276.875 642.869,277.288 652.735,277.728C655.919,277.87 659.177,277.782 662.186,278.564C662.435,278.629 662.477,279.028 662.514,279.278C662.527,279.364 662.256,279.525 662.074,279.55C661.37,279.645 660.642,279.776 659.936,279.754C657.466,279.681 655,279.549 652.533,279.44C652.529,279.473 652.525,279.505 652.521,279.538C639.938,279.001 627.356,278.458 614.772,277.931C611.564,277.797 608.347,277.734 605.14,277.593C604.188,277.551 603.245,277.374 602.319,277.217C601.746,277.12 601.522,276.833 601.748,276.509ZM233.119,828.807C232.323,835.308 231.492,841.808 230.668,848.308C230.595,848.885 230.553,849.472 230.329,850.031C230.175,850.416 229.906,850.836 228.95,850.852C228.332,850.862 227.465,850.499 227.448,850.122C227.42,849.543 227.39,848.964 227.407,848.387C227.426,847.808 227.502,847.229 227.563,846.545C228.239,841.307 228.928,835.962 229.62,830.618C230.07,827.152 230.435,823.681 231.019,820.222C231.282,818.657 231.108,817.025 232.393,815.559C232.459,815.482 232.784,815.465 232.994,815.457C233.237,815.447 233.525,815.437 233.721,815.502C233.911,815.565 234.087,815.715 234.132,815.843C234.275,816.258 234.484,816.686 234.44,817.1C234.029,821.003 233.596,824.906 233.119,828.807ZM1600.03,390.755C1596.79,388.555 1596.44,386.409 1599.47,384.095C1599.62,383.98 1599.74,383.849 1599.88,383.734C1602.15,381.971 1602.46,380.031 1601.5,377.954C1600.27,375.298 1599.09,372.634 1597.86,369.979C1597.52,369.253 1596.47,369.01 1594.91,369.135C1593.94,369.211 1593.65,369.653 1593.58,370.035C1592.98,373.496 1592.48,376.962 1591.91,380.424C1591.77,381.276 1592.01,382.172 1590.92,383.181C1590.73,381.545 1590.48,380.126 1590.41,378.704C1589.87,368.706 1589.37,358.707 1588.85,348.708C1588.7,345.809 1588.6,342.909 1588.37,340.013C1587.62,330.166 1586.88,320.316 1586,310.472C1585.51,304.972 1585.04,299.461 1584.02,293.99C1583.1,289.07 1583.18,284.15 1582.91,279.227C1582.84,277.891 1583.3,276.644 1584.2,275.292C1583.18,275.187 1582.23,274.985 1581.3,275.009C1576.85,275.125 1572.4,275.267 1567.95,275.464C1560.05,275.816 1552.17,276.392 1544.26,276.554C1532.13,276.801 1519.99,276.775 1507.85,276.868C1505.36,276.887 1502.95,276.687 1500.53,276.309C1491.92,274.968 1483.35,273.544 1474.87,271.943C1454.24,268.046 1433.07,265.899 1411.42,265.551C1394.08,265.272 1376.74,265.281 1359.43,266.041C1355.48,266.215 1351.51,266.246 1347.55,266.347C1343.59,266.448 1339.63,266.562 1335.67,266.657C1328,266.841 1320.33,267.104 1312.66,267.174C1302.26,267.269 1291.85,267.221 1281.45,267.219C1273.52,267.216 1265.6,267.179 1257.67,267.184C1256.45,267.185 1255.22,267.292 1254.02,267.437C1253.71,267.475 1253.37,267.831 1253.31,268.063C1253.25,268.316 1253.35,268.707 1253.64,268.84C1254.19,269.088 1254.92,269.321 1255.59,269.34C1259.3,269.441 1263.01,269.505 1266.72,269.532C1309.08,269.828 1351.43,270.111 1393.78,270.409C1401.46,270.463 1409.13,270.561 1416.81,270.665C1417.09,270.669 1417.35,270.956 1417.79,271.203C1417.05,271.422 1416.47,271.665 1415.83,271.772C1414.17,272.049 1412.5,272.365 1410.8,272.487C1406.62,272.787 1402.42,272.983 1398.23,273.227C1396.76,273.313 1395.29,273.417 1393.82,273.51C1393.23,273.547 1392.49,274.115 1392.73,274.461C1393,274.83 1393.44,275.327 1393.98,275.418C1394.88,275.571 1395.93,275.469 1396.92,275.438C1400.13,275.336 1403.34,275.167 1406.56,275.117C1415.73,274.975 1424.86,275.161 1434.01,275.714C1440.19,276.087 1446.2,276.841 1452.19,277.723C1452.4,277.752 1452.46,278.101 1452.68,278.423C1450.1,278.493 1447.63,278.562 1445.17,278.627C1438.74,278.796 1432.29,278.875 1425.87,279.159C1419.18,279.455 1412.51,279.363 1405.83,279.138C1390.5,278.621 1375.17,278.126 1359.84,277.61C1358.13,277.552 1356.43,277.41 1354.84,277.313C1354.02,276.279 1353.31,275.378 1352.57,274.442C1347.69,274.256 1343.02,274.496 1338.39,274.975C1337.11,275.108 1337.4,275.809 1337.55,276.366C1337.68,276.867 1337.2,277.313 1336.51,277.335C1333.3,277.439 1330.08,277.418 1326.87,277.492C1324.35,277.549 1321.97,277.239 1319.6,276.773C1315.85,276.036 1312.09,275.302 1308.29,274.658C1299.43,273.155 1290.38,272.325 1281.15,272.795C1272.27,273.248 1263.43,273.887 1254.57,274.453C1254.41,274.462 1254.27,274.592 1254.13,274.665C1254.26,274.788 1254.34,274.991 1254.52,275.021C1260.76,276.077 1267.31,275.458 1273.62,276.081C1273.54,276.859 1272.85,277.286 1271.83,277.326C1269.12,277.431 1266.4,277.479 1263.68,277.479C1181.19,277.487 1098.71,277.463 1016.22,277.508C1002.6,277.515 988.979,277.795 975.361,277.998C971.396,278.058 967.467,278.071 963.503,277.824C954.641,277.271 945.743,276.913 936.876,276.386C927.21,275.811 917.583,276.098 907.953,276.618C907.223,276.658 906.397,276.691 905.806,276.907C903.542,277.733 901.059,277.638 898.587,277.602C892.645,277.517 886.701,277.434 880.761,277.3C878.293,277.245 875.815,276.89 873.376,276.984C870.684,277.087 868.033,277.549 865.363,277.856C864.877,277.913 864.388,277.964 863.911,278.038C861.472,278.414 859.043,278.359 856.547,278.182C853.115,277.939 849.648,277.845 846.191,277.748C841.739,277.623 837.258,277.697 832.832,277.437C824.212,276.93 815.587,276.38 807.026,275.612C794.03,274.447 780.945,273.877 767.85,273.424C753.017,272.912 738.162,272.614 723.316,272.222C721.584,272.176 719.854,272.107 718.121,272.072C707.23,271.852 696.34,271.623 685.447,271.429C681.476,271.357 677.553,271.549 673.674,272.164C669.857,272.769 665.945,273.167 662.106,273.728C660.597,273.948 659.209,273.958 657.756,273.648C656.362,273.352 654.926,273.124 653.511,272.859C640.246,270.377 626.602,268.965 612.784,268.197C599.961,267.483 587.093,267.12 574.198,267.194C566.768,267.236 559.335,267.21 551.905,267.162C543.732,267.11 535.55,267.12 527.391,266.881C511.809,266.426 496.239,265.816 480.665,265.268C479.429,265.224 478.195,265.15 476.959,265.109C464.843,264.711 452.727,264.315 440.609,263.923C439.868,263.898 439.12,263.87 438.381,263.899C433.12,264.103 428.067,264.677 423.833,266.715C423.071,267.081 422.245,267.412 421.395,267.705C419.309,268.426 417.125,268.4 414.989,267.816C413.875,267.511 412.808,267.117 411.826,266.682C409.025,265.441 405.868,265.262 402.631,265.711C398.06,266.345 393.542,267.115 389.007,267.838C388.536,267.914 388.026,268.021 387.674,268.205C387.333,268.384 387.08,268.666 386.954,268.929C386.621,269.626 387.547,270.467 388.699,270.531C395.354,270.896 402.014,271.235 408.664,271.632C409.531,271.683 410.726,271.388 411.366,272.198C408.762,272.259 406.292,272.332 403.82,272.372C382.031,272.729 360.243,273.08 338.454,273.436C335.979,273.477 333.5,273.511 331.03,273.61C316.201,274.202 301.323,274.166 286.503,274.904C276.635,275.396 266.714,275.544 256.862,276.121C249.199,276.569 241.54,276.611 233.869,276.75C231.344,276.797 229.003,276.521 226.692,275.77C226.458,276.312 226.118,276.725 226.134,277.134C226.193,278.728 226.289,280.323 226.51,281.912C227.195,286.824 227.95,291.732 228.661,296.642C228.786,297.509 228.873,298.379 228.896,299.248C229.079,306.206 229.229,313.165 229.419,320.123C229.472,322.024 229.034,323.863 228.093,325.692C225.597,330.546 223.392,335.452 220.777,340.284C214.377,352.105 210.868,364.218 210.07,376.587C209.491,385.571 209.643,394.559 210.55,403.542C211.324,411.212 211.992,418.887 212.473,426.565C212.818,432.068 212.859,437.581 212.886,443.09C212.923,450.629 212.802,458.168 212.791,465.707C212.789,466.857 213.008,468.008 213.144,469.157C213.186,469.511 213.56,469.638 214.121,469.7C214.798,469.775 215.942,469.609 216.099,469.366C216.271,469.098 216.574,468.835 216.601,468.563C216.715,467.406 216.781,466.247 216.805,465.088C217.271,442.183 217.733,419.278 218.187,396.374C218.322,389.56 218.41,382.746 218.583,375.932C218.606,374.981 218.114,373.96 219.219,373.087C219.83,373.102 220.033,373.313 220.254,373.626C221.889,375.942 222.279,378.401 222.681,380.852C222.988,382.728 223.102,384.613 223.367,386.492C223.426,386.912 223.653,387.355 224.008,387.719C224.203,387.919 224.824,388.064 225.26,388.071C225.69,388.078 226.328,387.947 226.521,387.755C226.875,387.403 227.172,386.956 227.138,386.559C226.975,384.678 226.605,382.802 226.468,380.92C226.119,376.135 226.411,371.367 227.025,366.584C227.585,362.228 228.858,357.971 230.549,353.739C230.644,353.502 231.084,353.312 231.542,352.966C232.245,353.805 232.213,354.636 232.277,355.443C232.667,360.368 233.079,365.292 233.389,370.217C233.535,372.532 233.636,374.856 233.468,377.169C233.129,381.803 232.579,386.432 232.141,391.063C231.581,396.998 231.045,402.934 230.493,408.869C230.465,409.157 230.449,409.457 230.305,409.729C230.09,410.138 229.779,410.532 228.943,410.644C228.463,410.708 227.973,410.762 227.51,410.859C225.674,411.245 225.043,411.71 225.151,412.742C225.39,415.056 225.627,417.371 226.012,419.678C226.131,420.397 227.188,420.362 228.267,420.314C229.803,420.246 230.316,420.506 230.333,421.104C230.377,422.697 230.326,424.293 230.436,425.885C230.568,427.796 230.041,429.613 228.933,431.418C227.594,433.598 226.466,435.823 225.347,438.046C223.088,442.533 222.161,447.127 222.424,451.796C222.735,457.305 224.022,462.762 225.2,468.224C225.284,468.611 225.722,468.729 226.313,468.549C226.5,468.491 226.739,468.364 226.754,468.259C226.982,466.677 227.192,465.094 227.375,463.51C227.592,461.641 227.387,459.753 227.906,457.943C229.331,457.726 230.055,458.145 230.139,458.71C230.352,460.149 230.409,461.599 230.41,463.044C230.421,507.411 230.437,551.777 230.409,596.144C230.4,608.468 230.386,620.791 231.499,633.104C231.617,634.405 231.706,635.72 231.516,637.014C231.071,640.046 230.404,643.066 229.904,646.096C228.643,653.744 227.255,661.391 228.747,669.089C229.079,670.8 228.676,672.562 230.228,674.174C230.675,674.639 230.638,675.305 230.617,675.875C230.445,680.513 230.385,685.156 229.925,689.784C229.779,691.252 229.688,692.646 230.312,694.068C230.681,694.908 230.78,695.789 231.148,696.628C231.962,698.484 231.989,700.337 231.613,702.235C231.215,704.246 231.089,706.277 230.906,708.301C230.631,711.341 230.628,714.395 230.114,717.419C229.332,722.033 228.42,726.646 227.188,731.225C225.027,739.261 224.189,747.363 223.376,755.463C222.475,764.434 221.973,773.419 221.293,782.399C221.184,783.848 221.026,785.294 220.938,786.744C220.629,791.814 220.325,796.885 220.051,801.956C219.934,804.139 220.266,806.289 221.203,808.42C222.127,810.523 222.559,812.708 223.667,814.773C224.55,816.418 224.174,817.852 223.28,819.411C218.449,827.836 215.786,836.537 214.478,845.361C213.409,852.58 212.723,859.822 212.824,867.08C212.886,871.574 212.858,876.069 212.756,880.563C212.631,886.071 212.602,891.584 212.144,897.084C211.432,905.626 210.393,914.159 209.493,922.695C209.386,923.708 209.268,924.721 209.173,925.734C208.555,932.393 207.831,939.048 207.374,945.711C207.14,949.103 208.25,952.354 212.04,955.109C212.659,955.559 213.262,956.027 213.75,956.527C214.935,957.744 215.044,959.017 213.941,960.269C213.262,961.039 212.465,961.777 211.644,962.501C210.04,963.915 209.62,965.458 210.243,967.078C211.058,969.197 211.965,971.305 212.917,973.404C213.36,974.382 213.951,975.339 214.593,976.278C214.737,976.489 215.349,976.63 215.795,976.722C216.991,976.967 218.377,976.457 218.497,975.717C219.099,971.965 219.659,968.211 220.277,964.46C220.352,964.011 220.061,963.435 221.293,963.086C221.42,964.465 221.585,965.76 221.652,967.058C222.197,977.636 222.721,988.215 223.257,998.794C223.389,1001.4 223.484,1004.01 223.69,1006.62C224.421,1015.89 225.128,1025.16 225.974,1034.42C226.501,1040.21 226.992,1046.01 228,1051.77C228.81,1056.4 228.968,1061.03 229.083,1065.67C229.107,1066.68 229.127,1067.7 228.946,1068.7C228.826,1069.37 227.485,1069.83 227.883,1070.79C230.498,1071.11 233.197,1070.81 235.871,1070.69C244.757,1070.28 253.637,1069.82 262.522,1069.4C264.495,1069.31 266.48,1069.29 268.46,1069.26C279.357,1069.15 290.257,1069.08 301.15,1068.9C305.412,1068.83 309.519,1069.1 313.604,1069.81C323.319,1071.51 333.091,1073.11 342.802,1074.82C356.357,1077.21 370.173,1078.85 384.255,1079.6C403.028,1080.6 421.838,1080.74 440.67,1080.07C453.03,1079.63 465.4,1079.26 477.775,1079C494.36,1078.65 510.954,1078.47 527.553,1078.61C536.221,1078.68 544.891,1078.71 553.56,1078.72C555.019,1078.72 556.481,1078.56 557.935,1078.45C558.689,1078.39 559.198,1077.35 558.646,1076.99C558.34,1076.79 557.938,1076.53 557.546,1076.51C555.582,1076.4 553.606,1076.33 551.634,1076.31C500.612,1075.98 449.591,1075.66 398.569,1075.33C396.877,1075.32 395.186,1075.25 393.476,1075.21C393.62,1074.3 394.802,1074.23 395.64,1074.07C399.187,1073.42 402.814,1072.97 406.55,1072.87C409.52,1072.78 412.489,1072.69 415.45,1072.55C416.417,1072.51 417.388,1072.34 418.308,1072.15C419.047,1072 419.339,1071.6 419.317,1071.14C419.3,1070.79 418.472,1070.28 417.893,1070.29C415.667,1070.32 413.43,1070.3 411.216,1070.42C402.555,1070.89 393.903,1070.89 385.251,1070.36C384.02,1070.29 382.78,1070.23 381.543,1070.23C374.305,1070.2 367.373,1069.12 360.412,1068.14C360.22,1068.11 360.09,1067.94 359.752,1067.71C360.81,1067.56 361.734,1067.34 362.683,1067.3C365.891,1067.14 369.105,1067.02 372.321,1066.93C379.249,1066.76 386.179,1066.61 393.109,1066.46C394.344,1066.43 395.586,1066.44 396.821,1066.48C411.911,1066.92 427,1067.35 442.088,1067.81C446.292,1067.94 450.485,1068.18 454.689,1068.32C456.613,1068.38 457.981,1068.71 458.374,1069.96C458.694,1070.99 460.051,1071.34 461.677,1071.3C465.635,1071.21 469.593,1071.1 473.545,1070.95C474.261,1070.92 474.671,1070.61 474.656,1070.07C474.612,1068.56 474.793,1068.44 476.748,1068.44C480.957,1068.44 485.209,1068.26 489.359,1068.56C492.493,1068.79 495.495,1069.64 498.557,1070.21C499.971,1070.48 501.388,1070.74 502.806,1070.99C511.896,1072.63 521.185,1073.16 530.684,1072.94C538.623,1072.76 546.441,1071.98 554.332,1071.57C555.301,1071.52 556.271,1071.33 557.18,1071.12C557.54,1071.03 557.737,1070.71 558.146,1070.39C556.546,1070.34 555.072,1070.27 553.594,1070.24C549.386,1070.16 545.176,1070.1 540.969,1070C540.251,1069.98 539.538,1069.83 538.84,1069.7C538.713,1069.68 538.619,1069.49 538.606,1069.38C538.591,1069.24 538.597,1069.05 538.739,1068.98C539.106,1068.8 539.542,1068.56 539.97,1068.55C542.437,1068.47 544.911,1068.41 547.381,1068.41C625.409,1068.41 703.438,1068.4 781.465,1068.41C797.568,1068.42 813.667,1068.4 829.749,1067.83C832.961,1067.72 836.185,1067.71 839.403,1067.65C842.878,1067.59 846.315,1067.75 849.771,1068C856.652,1068.48 863.55,1068.93 870.463,1069.21C880.101,1069.6 889.757,1069.82 899.417,1069.34C902.354,1069.19 905.332,1069.39 908.114,1068.49C909.103,1068.17 910.532,1068.25 911.757,1068.26C918.94,1068.32 926.139,1068.27 933.297,1068.55C937.57,1068.72 941.675,1068.59 945.781,1067.97C948.936,1067.49 952.131,1067.45 955.369,1067.6C959.318,1067.78 963.277,1067.87 967.232,1068.01C972.672,1068.19 978.137,1068.24 983.547,1068.59C992.405,1069.15 1001.22,1069.93 1010.07,1070.57C1016.21,1071.02 1022.35,1071.52 1028.52,1071.76C1040.38,1072.23 1052.26,1072.53 1064.13,1072.91C1066.11,1072.97 1068.08,1073.06 1070.06,1073.11C1088.62,1073.56 1107.17,1074 1125.72,1074.45C1125.97,1074.46 1126.22,1074.45 1126.47,1074.46C1129.7,1074.5 1132.88,1074.35 1136.04,1073.9C1140.12,1073.31 1144.3,1072.93 1148.35,1072.27C1151.13,1071.82 1153.6,1071.99 1156.3,1072.51C1174.07,1075.88 1192.37,1077.5 1210.99,1078.09C1226.34,1078.57 1241.69,1078.78 1257.05,1078.68C1276.63,1078.56 1296.16,1079.22 1315.69,1079.97C1332.25,1080.6 1348.8,1081.29 1365.39,1081.58C1367.86,1081.62 1370.34,1081.73 1372.81,1081.75C1378.66,1081.8 1384.13,1081.12 1388.75,1078.84C1389.5,1078.47 1390.38,1078.18 1391.24,1077.91C1392.85,1077.41 1394.51,1077.22 1396.2,1077.79C1397.92,1078.36 1399.61,1078.96 1401.34,1079.51C1403.12,1080.08 1405.04,1080.4 1407.06,1080.23C1412.95,1079.73 1418.66,1078.78 1424.28,1077.65C1424.63,1077.58 1424.88,1077.21 1425.04,1076.95C1425.52,1076.2 1424.78,1075.44 1423.46,1075.37C1418.04,1075.06 1412.61,1074.8 1407.19,1074.49C1405.25,1074.37 1403.21,1074.64 1401.21,1073.99C1403.74,1073.5 1406.23,1073.56 1408.67,1073.51C1422.29,1073.24 1435.91,1073 1449.52,1072.73C1467.34,1072.39 1485.17,1072.06 1502.99,1071.66C1511.4,1071.48 1519.81,1071.18 1528.22,1070.87C1535.63,1070.6 1543.07,1070.42 1550.44,1069.9C1559.57,1069.25 1568.73,1069.27 1577.88,1069.14C1580.39,1069.11 1582.83,1069.17 1585.22,1069.92C1585.46,1069.47 1585.86,1069.08 1585.85,1068.69C1585.81,1067.1 1585.73,1065.5 1585.51,1063.91C1584.83,1059 1584.07,1054.09 1583.37,1049.18C1583.24,1048.32 1583.18,1047.45 1583.15,1046.58C1582.96,1039.62 1582.82,1032.66 1582.61,1025.7C1582.55,1023.95 1582.86,1022.23 1583.7,1020.55C1586.05,1015.82 1588.13,1011.04 1590.75,1006.36C1597.5,994.289 1601.06,981.896 1601.97,969.236C1602.58,960.687 1602.38,952.134 1601.59,943.585C1600.81,935.044 1599.96,926.502 1599.53,917.955C1599.13,910.131 1599.22,902.298 1599.17,894.47C1599.14,889.396 1599.28,884.321 1599.29,879.247C1599.29,878.39 1599.08,877.527 1598.83,876.68C1598.78,876.488 1598.2,876.286 1597.8,876.203C1597.05,876.047 1596.4,876.255 1595.91,876.597C1595.76,876.705 1595.6,876.849 1595.58,876.982C1595.44,878.134 1595.24,879.287 1595.21,880.441C1594.7,905.666 1594.2,930.89 1593.71,956.115C1593.61,961.044 1593.58,965.973 1593.46,970.902C1593.44,971.545 1593.8,972.283 1592.73,972.816C1592.4,972.597 1592,972.422 1591.83,972.189C1590.16,969.886 1589.71,967.432 1589.34,964.976C1589.06,963.099 1588.94,961.213 1588.69,959.335C1588.63,958.919 1588.37,958.488 1588.03,958.119C1587.82,957.896 1587.2,957.608 1586.9,957.654C1586.25,957.754 1585.34,957.974 1585.14,958.278C1584.81,958.791 1584.86,959.41 1584.92,959.979C1585.14,962.149 1585.49,964.315 1585.66,966.487C1586.03,971.131 1585.35,975.752 1584.83,980.384C1584.39,984.319 1583,988.121 1581.46,991.925C1581.38,992.136 1580.82,992.283 1580.23,992.589C1580.03,991.481 1579.77,990.487 1579.68,989.487C1579.35,985.432 1579.18,981.372 1578.74,977.321C1578.32,973.405 1578.39,969.499 1578.75,965.587C1579.34,959.218 1579.92,952.849 1580.53,946.48C1580.82,943.44 1581.17,940.403 1581.52,937.366C1581.58,936.792 1581.76,936.222 1581.91,935.547C1583.04,935.273 1584.19,935.035 1585.28,934.718C1586.2,934.452 1586.87,933.996 1586.82,933.358C1586.67,931.331 1586.46,929.306 1586.24,927.281C1586.18,926.712 1585.98,926.149 1585.84,925.559C1584.51,925.48 1583.36,925.412 1581.97,925.329C1581.38,923.176 1581.79,921.018 1581.67,918.875C1581.6,917.558 1581.99,916.306 1582.75,915.046C1584.14,912.726 1585.33,910.359 1586.53,908C1589.19,902.806 1589.96,897.502 1589.46,892.092C1589.01,887.308 1587.68,882.583 1586.99,877.819C1586.9,877.252 1586.16,876.759 1585.73,876.911C1585,877.169 1585,877.582 1584.97,877.979C1584.78,880.731 1584.64,883.484 1584.42,886.236C1584.38,886.804 1584.12,887.368 1583.92,887.928C1583.9,887.979 1583.56,888.024 1583.38,888.015C1583.15,888.002 1582.81,887.971 1582.71,887.878C1582.35,887.517 1581.81,887.135 1581.78,886.747C1581.65,885.301 1581.67,883.849 1581.67,882.399C1581.67,834.408 1581.69,786.417 1581.64,738.426C1581.64,732.339 1581.3,726.25 1581.05,720.163C1580.94,717.41 1580.64,714.659 1580.48,711.906C1580.41,710.75 1580.38,709.583 1580.55,708.432C1580.96,705.689 1581.47,702.95 1581.99,700.213C1583.5,692.279 1584.6,684.341 1583.25,676.353C1582.98,674.779 1583.28,673.175 1581.85,671.7C1581.4,671.236 1581.41,670.571 1581.44,670.001C1581.63,665.219 1581.77,660.435 1582.16,655.659C1582.26,654.491 1582.41,653.374 1581.9,652.229C1581.47,651.25 1581.31,650.229 1580.89,649.246C1580.1,647.389 1580.04,645.533 1580.39,643.635C1580.76,641.621 1581.03,639.593 1581.07,637.568C1581.2,631.612 1582.16,625.693 1583.66,619.816C1586.2,609.915 1587.81,599.963 1588.71,589.974C1589.52,580.999 1590.08,572.016 1590.76,563.036C1590.87,561.587 1591,560.14 1591.09,558.691C1591.39,554.055 1591.68,549.419 1591.96,544.783C1592.13,542.164 1591.86,539.579 1590.7,537.022C1589.74,534.925 1589.2,532.762 1588.2,530.674C1587.56,529.34 1587.74,528.154 1588.48,526.867C1593.45,518.313 1596.21,509.476 1597.54,500.506C1598.53,493.867 1599.18,487.204 1599.19,480.527C1599.22,472.264 1599.31,464 1599.46,455.736C1599.51,452.838 1599.75,449.939 1600.04,447.046C1600.78,439.811 1601.59,432.578 1602.38,425.345C1602.66,422.741 1602.98,420.138 1603.21,417.532C1603.72,411.596 1604.34,405.661 1604.64,399.721C1604.79,396.487 1603.79,393.311 1600.03,390.755Z" style="fill:rgb(2,60,186);fill-rule:nonzero;"/>
    </g>
</svg>
